<svg xmlns="http://www.w3.org/2000/svg" xmlns:xlink="http://www.w3.org/1999/xlink" width="800" zoomAndPan="magnify" viewBox="0 0 600 374.999991" height="500" preserveAspectRatio="xMidYMid meet" version="1.0"><path fill="#cda85e" d="M 562.191406 165.480469 L 560.054688 169.746094 C 571.296875 164.976562 582.339844 160.507812 593.136719 156.402344 L 594.207031 152.6875 C 583.535156 156.726562 572.863281 160.996094 562.191406 165.480469 Z M 562.191406 165.480469 " fill-opacity="1" fill-rule="evenodd"/><path fill="#cda85e" d="M 466.746094 152.890625 L 464.066406 157.433594 C 479.570312 151.375 494.816406 145.640625 509.75 140.300781 L 510.964844 136.429688 C 496.207031 141.691406 481.46875 147.179688 466.746094 152.890625 Z M 466.746094 152.890625 " fill-opacity="1" fill-rule="evenodd"/><path fill="#cda85e" d="M 488.050781 164.347656 L 483.671875 169.488281 C 510.238281 159.234375 536.378906 149.363281 561.996094 139.960938 L 563.871094 135.882812 C 538.554688 145.160156 513.28125 154.652344 488.050781 164.347656 Z M 488.050781 164.347656 " fill-opacity="1" fill-rule="evenodd"/><path fill="#cda85e" d="M 382.539062 137.015625 L 378.636719 142.054688 C 402.691406 132.324219 426.359375 122.964844 449.558594 114.066406 L 451.195312 110.042969 C 428.265625 118.820312 405.378906 127.816406 382.539062 137.015625 Z M 382.539062 137.015625 " fill-opacity="1" fill-rule="evenodd"/><path fill="#cda85e" d="M 417.050781 144.15625 L 414.917969 148.421875 C 426.160156 143.65625 437.199219 139.1875 448 135.082031 L 449.066406 131.363281 C 438.394531 135.40625 427.722656 139.671875 417.050781 144.15625 Z M 417.050781 144.15625 " fill-opacity="1" fill-rule="evenodd"/><path fill="#cda85e" d="M 280.011719 161.214844 L 277.878906 165.480469 C 289.121094 160.710938 300.164062 156.242188 310.960938 152.140625 L 312.027344 148.421875 C 301.355469 152.464844 290.683594 156.730469 280.011719 161.214844 Z M 280.011719 161.214844 " fill-opacity="1" fill-rule="evenodd"/><path fill="#cda85e" d="M 250.570312 156.949219 L 248.433594 161.214844 C 259.675781 156.449219 270.71875 151.980469 281.519531 147.875 L 282.585938 144.15625 C 271.914062 148.199219 261.242188 152.46875 250.570312 156.949219 Z M 250.570312 156.949219 " fill-opacity="1" fill-rule="evenodd"/><path fill="#cda85e" d="M 220.6875 144.15625 L 218.554688 148.421875 C 229.796875 143.65625 240.839844 139.1875 251.636719 135.082031 L 252.703125 131.363281 C 242.03125 135.40625 231.359375 139.671875 220.6875 144.15625 Z M 220.6875 144.15625 " fill-opacity="1" fill-rule="evenodd"/><path fill="#cda85e" d="M 122.507812 165.480469 L 120.371094 169.746094 C 131.613281 164.976562 142.65625 160.507812 153.457031 156.402344 L 154.523438 152.6875 C 143.851562 156.726562 133.179688 160.996094 122.507812 165.480469 Z M 122.507812 165.480469 " fill-opacity="1" fill-rule="evenodd"/><path fill="#cda85e" d="M 45.667969 155.03125 L 43.535156 159.292969 C 54.777344 154.527344 65.816406 150.058594 76.617188 145.953125 L 77.683594 142.238281 C 67.011719 146.277344 56.339844 150.546875 45.667969 155.03125 Z M 45.667969 155.03125 " fill-opacity="1" fill-rule="evenodd"/><path fill="#cda85e" d="M 9.367188 139.554688 L 7.535156 143.089844 C 15.066406 139.890625 22.441406 136.933594 29.621094 134.273438 L 30.726562 131.121094 C 23.632812 133.738281 16.515625 136.550781 9.367188 139.554688 Z M 9.367188 139.554688 " fill-opacity="1" fill-rule="evenodd"/><path fill="#cda85e" d="M 8.714844 145.101562 L 6.878906 148.640625 C 14.414062 145.4375 21.785156 142.480469 28.964844 139.820312 L 30.074219 136.667969 C 22.980469 139.285156 15.859375 142.097656 8.714844 145.101562 Z M 8.714844 145.101562 " fill-opacity="1" fill-rule="evenodd"/><path fill="#cda85e" d="M 184.386719 143.832031 L 182.554688 147.367188 C 190.085938 144.167969 197.460938 141.210938 204.640625 138.550781 L 205.746094 135.398438 C 198.652344 138.015625 191.535156 140.828125 184.386719 143.832031 Z M 184.386719 143.832031 " fill-opacity="1" fill-rule="evenodd"/><path fill="#cda85e" d="M 183.734375 149.378906 L 181.898438 152.914062 C 189.433594 149.714844 196.804688 146.757812 203.984375 144.097656 L 205.09375 140.945312 C 198 143.5625 190.878906 146.375 183.734375 149.378906 Z M 183.734375 149.378906 " fill-opacity="1" fill-rule="evenodd"/><path fill="#cda85e" d="M 373.808594 203.859375 C 374.277344 205.792969 379.410156 207.949219 380.765625 206.324219 C 382.878906 203.796875 383.023438 196.570312 379.410156 195.332031 C 376.125 194.207031 373.632812 197.914062 372.230469 201.449219 C 370.011719 207.046875 354.292969 214.675781 343.449219 218.058594 C 354.242188 218.5 365.671875 216.371094 373.808594 203.859375 Z M 376.5 199.59375 C 377.503906 199.53125 378.183594 199.992188 378.582031 200.65625 C 378.980469 201.316406 379.089844 202.175781 378.953125 202.902344 C 377.375 202.683594 376.335938 201.222656 376.5 199.59375 Z M 376.5 199.59375 " fill-opacity="1" fill-rule="evenodd"/><path fill="#cda85e" d="M 387.824219 144.15625 L 393.574219 149.898438 L 387.824219 155.636719 L 382.074219 149.898438 Z M 387.824219 144.15625 " fill-opacity="1" fill-rule="evenodd"/><path fill="#cda85e" d="M 205.746094 150.035156 L 211.5 155.777344 L 205.746094 161.515625 L 199.996094 155.777344 Z M 205.746094 150.035156 " fill-opacity="1" fill-rule="evenodd"/><path fill="#cda85e" d="M 194.246094 150.035156 L 199.996094 155.777344 L 194.246094 161.515625 L 188.496094 155.777344 Z M 194.246094 150.035156 " fill-opacity="1" fill-rule="evenodd"/><path fill="#cda85e" d="M 26.636719 149.734375 L 32.386719 155.476562 L 26.636719 161.214844 L 20.886719 155.476562 Z M 26.636719 149.734375 " fill-opacity="1" fill-rule="evenodd"/><path fill="#cda85e" d="M 15.132812 149.734375 L 20.886719 155.476562 L 15.132812 161.214844 L 9.382812 155.476562 Z M 15.132812 149.734375 " fill-opacity="1" fill-rule="evenodd"/><path fill="#cda85e" d="M 79.820312 190 C 90.042969 185.804688 100.742188 182.679688 111.835938 180.429688 C 112.492188 177.679688 113.515625 174.839844 115.035156 171.875 C 98.222656 169.316406 84.851562 161.652344 69.148438 162.277344 C 59.65625 162.652344 55.03125 170.039062 58.476562 174.007812 C 61.890625 177.949219 66.761719 182.839844 70.214844 185.734375 C 58.503906 187.953125 52.324219 194.769531 47.804688 201.726562 C 41.777344 211.003906 31.179688 207.226562 28.59375 197.464844 C 25.792969 186.878906 23.613281 173.054688 18.988281 162.28125 L 15.789062 171.875 C 17.035156 174.933594 17.757812 177.78125 17.921875 180.40625 C 7.015625 188.972656 2.625 197.839844 4.046875 204.925781 C 5.320312 211.269531 15.882812 206.453125 24.324219 199.3125 C 25.578125 220.585938 45.816406 222.390625 52.070312 205.992188 C 54.179688 212 58.003906 216.058594 64.878906 216.652344 C 71.296875 217.210938 76.011719 204.492188 67.011719 195.332031 C 70.171875 194.429688 73.042969 193.050781 75.550781 191.066406 L 79.820312 198.53125 Z M 57.40625 202.792969 C 58.402344 204.359375 59.605469 205.507812 61.027344 206.226562 C 62.445312 206.941406 64.085938 207.222656 65.945312 207.058594 C 63.734375 203.519531 60.917969 202.007812 57.40625 202.792969 Z M 20.054688 185.203125 C 20.675781 186.714844 21.066406 188.222656 21.238281 189.734375 C 21.414062 191.246094 21.371094 192.753906 21.125 194.265625 C 7.144531 202.351562 2.988281 198.5625 20.054688 185.203125 Z M 63.8125 170.808594 C 74.242188 169.621094 86.214844 171.921875 99.027344 176.140625 C 91.402344 177.605469 83.765625 180.148438 77.683594 183.605469 C 73.878906 178.988281 69.132812 174.777344 63.8125 170.808594 Z M 63.8125 170.808594 " fill-opacity="1" fill-rule="evenodd"/><path fill="#cda85e" d="M 197.210938 176.355469 L 200.683594 176.140625 C 197.304688 174.109375 194.53125 171.015625 190.804688 167.613281 L 189.300781 176.140625 C 191.996094 178.238281 193.40625 179.925781 194.902344 182.539062 C 190.773438 188.097656 185.632812 193.148438 180.132812 198.019531 C 186.589844 197.839844 192.296875 193.273438 197.210938 186.800781 C 198.65625 187.492188 199.332031 188.523438 199.238281 189.898438 C 191.523438 202.0625 190.023438 214.671875 196.347656 215.171875 C 202.472656 215.652344 207.882812 213.011719 212.292969 205.964844 C 216.019531 200.007812 212.566406 190.4375 207.011719 185.5625 C 210.296875 180.273438 213.976562 175.890625 216.40625 169.746094 C 220 160.652344 216.097656 156.679688 210.015625 163.539062 C 206.238281 167.800781 202.894531 172.640625 200.144531 178.273438 Z M 202.972656 192.132812 C 204.332031 193.179688 205.566406 194.398438 206.699219 195.753906 C 207.832031 197.113281 208.859375 198.617188 209.800781 200.234375 C 198.15625 210.117188 190.566406 209.214844 202.972656 192.132812 Z M 202.117188 180.191406 C 202.671875 181.410156 203.214844 181.953125 204.300781 182.539062 C 206.675781 179.070312 208.960938 175.515625 211.167969 171.875 C 212.71875 169.316406 211.851562 168.054688 209.359375 170.941406 C 206.890625 173.800781 204.589844 177.160156 202.117188 180.191406 Z M 202.117188 180.191406 " fill-opacity="1" fill-rule="evenodd"/><path fill="#cda85e" d="M 443.785156 154.820312 C 442.855469 157.726562 441.632812 160.34375 440.15625 162.707031 C 442.019531 164.746094 445.324219 169.371094 442.292969 170.597656 C 435.792969 173.230469 430.289062 171.527344 433.113281 162.496094 C 408.144531 175.101562 393.265625 175.132812 391.28125 159.082031 C 381.347656 170.496094 370.789062 173.472656 359.265625 163.347656 C 349.230469 154.53125 337.980469 145.714844 323.933594 139.894531 C 340.859375 127.679688 358.054688 119.589844 375.433594 114.304688 C 382.300781 112.21875 382.480469 113.292969 376.339844 119.972656 C 371.707031 125.011719 369.109375 130.625 367.800781 135.628906 C 374.40625 129.238281 380.382812 122.355469 384.878906 114.304688 C 389.273438 106.433594 384.289062 103.351562 372.070312 107.910156 C 354.539062 114.449219 337.621094 122.710938 320.84375 131.363281 C 317.425781 133.128906 317.925781 141.304688 318.710938 145.425781 C 329.019531 152.398438 338.503906 159.886719 347.605469 167.613281 C 352.484375 171.753906 347.476562 176.621094 342.726562 178.273438 C 326.101562 184.0625 324.929688 188.960938 325.917969 197.464844 C 314.980469 202.195312 300.257812 219.625 293.097656 219.804688 C 284.472656 220.023438 287.34375 209.601562 291.765625 193.199219 C 281.644531 204.640625 278.425781 224.320312 290.964844 227.316406 C 302.609375 230.097656 320.859375 205.363281 329.382812 205.992188 C 332.320312 212.75 336.6875 215.296875 342.1875 214.519531 C 349.414062 213.503906 348.6875 195.898438 340.054688 193.988281 C 337.214844 193.363281 334.058594 193.847656 330.617188 195.332031 C 328.667969 193.359375 330.617188 191.101562 335.785156 188.933594 C 356.191406 180.378906 355.433594 174.9375 351.941406 166.367188 C 364.214844 180.972656 378.324219 184.421875 388.085938 170.167969 C 392.964844 182.253906 411.742188 185.472656 427.566406 171.875 C 430.558594 184.652344 444.316406 181.714844 446.773438 174.007812 C 448.933594 167.242188 447.777344 160.140625 443.785156 154.820312 Z M 335.785156 202.835938 C 337.710938 202.28125 339.632812 202.550781 340.914062 203.21875 C 342.195312 203.890625 342.832031 204.957031 342.1875 205.992188 C 341.460938 207.167969 337.386719 205.015625 335.785156 202.835938 Z M 335.785156 202.835938 " fill-opacity="1" fill-rule="evenodd"/><path fill="#cda85e" d="M 293.097656 184.671875 C 304.574219 193.222656 313.269531 192.546875 310.921875 176.140625 C 308.953125 162.394531 300.800781 164.023438 292.488281 175.394531 L 290.964844 174.007812 L 288.828125 177.199219 L 290.5 178.273438 C 289.027344 180.34375 287.089844 181.824219 284.5625 182.539062 C 281.894531 177.4375 278.390625 173.480469 273.890625 173.410156 C 267.894531 173.3125 264.839844 178.285156 263.214844 184.671875 C 261.867188 189.984375 268.855469 194.078125 278.15625 193.199219 C 282.367188 192.800781 281.453125 194.171875 278.15625 197.464844 C 267.132812 208.488281 256.34375 215.429688 246.140625 215.472656 C 238.371094 215.507812 236.800781 205.773438 239.738281 188.933594 C 230.300781 207.789062 233.757812 223.484375 246.140625 225.183594 C 259.597656 227.027344 283.996094 206.085938 285.441406 192.183594 C 288.542969 190.148438 291.050781 187.609375 293.097656 184.671875 Z M 276.945312 184.671875 C 275.394531 185.003906 273.433594 184.898438 271.921875 184.492188 C 270.414062 184.089844 269.359375 183.390625 269.621094 182.539062 C 270.261719 180.449219 274.851562 181.945312 276.945312 184.671875 Z M 305.90625 181.078125 C 305.25 178.957031 303.835938 177.132812 302.363281 176.132812 C 300.890625 175.128906 299.355469 174.957031 298.453125 176.140625 C 296.777344 178.339844 300.800781 180.535156 305.90625 181.078125 Z M 305.90625 181.078125 " fill-opacity="1" fill-rule="evenodd"/><path fill="#cda85e" d="M 508.671875 185.683594 L 519.34375 186.800781 L 521.476562 184.671875 C 527.460938 186.578125 532.304688 187.804688 536.988281 188.933594 C 518.03125 197.234375 505.5 197.511719 495.863281 194.171875 C 502.3125 192.558594 506.964844 189.320312 507.714844 182.539062 C 496.265625 176.066406 483.183594 173.941406 469.402344 180.40625 L 465.984375 188.933594 C 472.613281 186.207031 477.140625 188.261719 480.921875 192.003906 C 475.003906 198.863281 464.277344 197.667969 462.71875 186.800781 C 462.859375 162.941406 463.1875 138.363281 456.03125 117.625 L 453.175781 130.082031 C 453.382812 134.226562 454.972656 138.386719 455.3125 140.960938 C 457.574219 158.179688 457.265625 174.105469 457.445312 191.066406 C 445.148438 202.589844 432.71875 212.492188 416.890625 212.390625 C 405.140625 212.3125 404.148438 199.265625 407.417969 181.078125 C 397.382812 199.039062 399.503906 217.882812 413.382812 221.792969 C 428.613281 226.082031 443.25 214.988281 458.742188 196.515625 C 462.355469 209.15625 476.824219 208.328125 487.328125 197.464844 C 496.21875 208.5625 509.953125 208.269531 526.871094 200.488281 C 538.976562 194.921875 551.121094 192.597656 564.164062 194.171875 L 568.433594 186.800781 C 552.871094 185.246094 538.71875 181.578125 525.746094 176.140625 C 521.082031 176.40625 516.828125 176.394531 512.9375 176.140625 C 510.714844 179.207031 509.085938 182.359375 508.671875 185.683594 Z M 483.484375 185.097656 C 487.613281 184.421875 491.738281 184.589844 495.863281 185.503906 C 493.542969 186.519531 491.304688 188.164062 489.246094 189.574219 C 488.132812 188.03125 486.191406 186.242188 483.484375 185.097656 Z M 483.484375 185.097656 " fill-opacity="1" fill-rule="evenodd"/><path fill="#cda85e" d="M 586.96875 193.386719 C 577.085938 194.3125 569.140625 192.484375 573.054688 182.699219 C 578.417969 169.289062 584.699219 169.472656 592.390625 182.699219 C 597.238281 191.039062 593 204.136719 585.023438 210.355469 C 573.945312 220.242188 561.238281 228.183594 553.007812 224.074219 C 541.429688 218.292969 541.457031 201.894531 550.875 188.691406 C 546.039062 204.898438 547.570312 214.28125 556.972656 215.230469 C 567.996094 216.339844 576.007812 208.386719 585.023438 200.789062 C 591.667969 195.191406 591.304688 192.976562 586.96875 193.386719 Z M 578.621094 182.699219 C 578.097656 184.160156 579.144531 184.921875 580.707031 185.203125 C 582.273438 185.484375 584.351562 185.285156 585.886719 184.832031 C 583.464844 181.769531 579.519531 180.207031 578.621094 182.699219 Z M 578.621094 182.699219 " fill-opacity="1" fill-rule="evenodd"/><path fill="#cda85e" d="M 172.65625 193.753906 C 162.777344 194.679688 154.832031 192.851562 158.742188 183.066406 C 164.105469 169.65625 170.386719 169.839844 178.078125 183.066406 C 182.929688 191.40625 178.6875 204.503906 170.714844 210.722656 C 159.632812 220.609375 146.925781 228.550781 138.699219 224.445312 C 127.117188 218.660156 127.144531 202.265625 136.5625 189.058594 C 131.726562 205.265625 133.257812 214.648438 142.660156 215.597656 C 153.683594 216.707031 161.695312 208.753906 170.714844 201.15625 C 177.355469 195.558594 176.996094 193.347656 172.65625 193.753906 Z M 164.3125 183.066406 C 163.785156 184.527344 164.832031 185.289062 166.398438 185.570312 C 167.960938 185.851562 170.039062 185.652344 171.574219 185.199219 C 169.152344 182.136719 165.207031 180.574219 164.3125 183.066406 Z M 164.3125 183.066406 " fill-opacity="1" fill-rule="evenodd"/><path fill="#cda85e" d="M 145.207031 195.332031 C 138.65625 185.402344 128.464844 190.257812 120.371094 200.367188 C 108.964844 214.617188 101.835938 220.585938 95.511719 219.863281 C 80.703125 218.171875 81.417969 196.578125 94.757812 185.746094 C 89.339844 201.992188 87.019531 212.523438 94.757812 212.390625 C 100.933594 212.28125 109.339844 201.320312 116.101562 194.050781 C 128.863281 180.328125 140.925781 175.316406 148.117188 186.800781 C 149.378906 188.8125 147.015625 192.964844 145.207031 195.332031 Z M 145.207031 195.332031 " fill-opacity="1" fill-rule="evenodd"/><path fill="#cda85e" d="M 235.628906 170.167969 L 239.898438 169.746094 L 226.167969 161.214844 L 226.167969 171.875 C 230.324219 174.914062 232.863281 176.433594 235.628906 178.273438 C 244.417969 184.121094 259.234375 190.4375 255.621094 194.230469 C 246.859375 203.421875 235.203125 211.378906 222.820312 215.351562 C 216.824219 217.273438 215.476562 208.359375 218.554688 193.6875 C 210.707031 208.328125 209.722656 223.160156 218.554688 225.296875 C 226.449219 227.207031 237.519531 218.183594 256.972656 203.859375 C 264.65625 198.203125 264.296875 186.285156 256.972656 182.539062 C 249.367188 178.644531 242.179688 175.660156 235.628906 170.167969 Z M 235.628906 170.167969 " fill-opacity="1" fill-rule="evenodd"/><path fill="#cda85e" d="M 524.640625 208.441406 L 530.390625 214.183594 L 524.640625 219.921875 L 518.890625 214.183594 Z M 524.640625 208.441406 " fill-opacity="1" fill-rule="evenodd"/><path fill="#cda85e" d="M 439.046875 183.859375 L 444.796875 189.601562 L 439.046875 195.339844 L 433.296875 189.601562 Z M 439.046875 183.859375 " fill-opacity="1" fill-rule="evenodd"/><path fill="#cda85e" d="M 426.242188 183.851562 L 431.992188 189.589844 L 426.242188 195.332031 L 420.492188 189.589844 Z M 426.242188 183.851562 " fill-opacity="1" fill-rule="evenodd"/><path fill="#cda85e" d="M 414.917969 183.859375 L 420.667969 189.601562 L 414.917969 195.339844 L 409.167969 189.601562 Z M 414.917969 183.859375 " fill-opacity="1" fill-rule="evenodd"/><path fill="#cda85e" d="M 94.148438 149.429688 C 94.894531 144.425781 97.160156 140.996094 102.683594 140.945312 C 114.011719 140.84375 116.425781 142.703125 110.15625 149.609375 C 105.632812 154.59375 99.015625 157.734375 92.011719 158.53125 C 95.925781 156.167969 99.839844 153.800781 103.753906 151.066406 C 105.699219 149.707031 104.796875 149.136719 102.683594 148.933594 C 100.414062 148.71875 97.519531 148.914062 94.148438 149.429688 Z M 94.148438 149.429688 " fill-opacity="1" fill-rule="evenodd"/><path fill="#cda85e" d="M 40.898438 173.730469 C 39.488281 168.675781 51.425781 168.496094 49.4375 172.8125 C 48 175.933594 44.367188 179.144531 43.035156 182.214844 C 40.921875 187.085938 48.777344 186.007812 57.195312 181.339844 C 49.605469 191.78125 36.5 189.617188 39.667969 182.394531 C 40.667969 180.113281 42.40625 177.945312 45.8125 174.945312 C 48.160156 172.871094 44.367188 171.5625 40.898438 173.730469 Z M 40.898438 173.730469 " fill-opacity="1" fill-rule="evenodd"/><path fill="#cda85e" d="M 555.296875 199.507812 C 554.167969 195.429688 563.707031 195.28125 562.121094 198.765625 C 560.972656 201.285156 558.066406 203.878906 557 206.355469 C 555.3125 210.289062 561.59375 209.417969 568.320312 205.652344 C 562.253906 214.082031 551.78125 212.332031 554.3125 206.503906 C 555.109375 204.660156 556.5 202.910156 559.222656 200.488281 C 561.101562 198.816406 558.066406 197.757812 555.296875 199.507812 Z M 555.296875 199.507812 " fill-opacity="1" fill-rule="evenodd"/><path fill="#cda85e" d="M 141.300781 145.976562 C 142.3125 148.269531 143.714844 147.730469 143.433594 144.910156 C 143.332031 143.84375 143.355469 142.132812 142.367188 140.644531 C 140.773438 138.246094 139.101562 140.871094 138.097656 142.777344 C 136.546875 145.734375 135.613281 149 134.898438 152.371094 C 133.230469 148.726562 132.152344 144.679688 129.5625 142.777344 C 126.378906 140.441406 125.78125 143.132812 126.359375 148.109375 C 127.878906 146.042969 129.441406 145.925781 131.25 150.238281 C 132.871094 154.113281 134.171875 157.5 135.40625 160.902344 C 136.21875 156.980469 136.945312 152.964844 138.097656 148.109375 C 138.910156 144.683594 139.859375 142.707031 141.300781 145.976562 Z M 141.300781 145.976562 " fill-opacity="1" fill-rule="evenodd"/><path fill="#cda85e" d="M 331.875 165.425781 C 332.886719 167.722656 334.285156 167.179688 334.007812 164.359375 C 333.902344 163.292969 333.929688 161.585938 332.941406 160.097656 C 331.347656 157.699219 329.675781 160.320312 328.671875 162.226562 C 327.121094 165.183594 326.1875 168.449219 325.46875 171.824219 C 323.804688 168.175781 322.726562 164.128906 320.132812 162.226562 C 316.949219 159.890625 316.351562 162.582031 316.933594 167.558594 C 318.453125 165.492188 320.015625 165.375 321.820312 169.691406 C 323.445312 173.5625 324.742188 176.949219 325.976562 180.351562 C 326.789062 176.429688 327.519531 172.414062 328.671875 167.558594 C 329.484375 164.136719 330.433594 162.15625 331.875 165.425781 Z M 331.875 165.425781 " fill-opacity="1" fill-rule="evenodd"/><path fill="#cda85e" d="M 365.792969 188.828125 C 366.804688 191.125 368.203125 190.582031 367.925781 187.761719 C 367.820312 186.695312 367.847656 184.984375 366.859375 183.496094 C 365.265625 181.097656 363.589844 183.722656 362.589844 185.628906 C 361.035156 188.585938 360.105469 191.851562 359.386719 195.226562 C 357.722656 191.578125 356.644531 187.53125 354.050781 185.628906 C 350.867188 183.292969 350.269531 185.984375 350.851562 190.960938 C 352.371094 188.894531 353.933594 188.777344 355.738281 193.09375 C 357.359375 196.964844 358.660156 200.351562 359.894531 203.753906 C 360.707031 199.832031 361.4375 195.816406 362.589844 190.960938 C 363.402344 187.539062 364.351562 185.558594 365.792969 188.828125 Z M 365.792969 188.828125 " fill-opacity="1" fill-rule="evenodd"/><path fill="#cda85e" d="M 485.316406 129.230469 C 486.328125 131.527344 487.726562 130.984375 487.449219 128.164062 C 487.34375 127.097656 487.371094 125.390625 486.382812 123.902344 C 484.789062 121.503906 483.117188 124.125 482.113281 126.035156 C 480.5625 128.988281 479.628906 132.253906 478.914062 135.628906 C 477.246094 131.984375 476.167969 127.933594 473.578125 126.035156 C 470.390625 123.699219 469.796875 126.386719 470.375 131.363281 C 471.894531 129.296875 473.457031 129.179688 475.265625 133.496094 C 476.886719 137.367188 478.1875 140.753906 479.421875 144.15625 C 480.230469 140.234375 480.960938 136.222656 482.113281 131.363281 C 482.925781 127.941406 483.875 125.960938 485.316406 129.230469 Z M 485.316406 129.230469 " fill-opacity="1" fill-rule="evenodd"/><path fill="#cda85e" d="M 49.324219 133.230469 C 46.304688 136.898438 41.472656 141.335938 43.988281 148.15625 C 45.433594 152.066406 50.390625 150.429688 51.03125 144.742188 C 48.507812 146.054688 46.722656 146.800781 46.335938 144.53125 C 45.988281 142.484375 47.160156 138.296875 49.324219 133.230469 Z M 49.324219 133.230469 " fill-opacity="1" fill-rule="evenodd"/><path fill="#cda85e" d="M 75.550781 216.960938 C 79.246094 213.96875 84.867188 210.582031 83.761719 203.398438 C 83.128906 199.28125 77.945312 199.894531 76.179688 205.335938 C 78.914062 204.554688 80.8125 204.183594 80.738281 206.484375 C 80.671875 208.558594 78.683594 212.429688 75.550781 216.960938 Z M 75.550781 216.960938 " fill-opacity="1" fill-rule="evenodd"/><path fill="#cda85e" d="M 120.554688 186.394531 C 124.25 183.402344 129.871094 180.015625 128.769531 172.832031 C 128.136719 168.714844 122.949219 169.328125 121.183594 174.769531 C 123.921875 173.988281 125.816406 173.617188 125.742188 175.917969 C 125.675781 177.992188 123.6875 181.863281 120.554688 186.394531 Z M 120.554688 186.394531 " fill-opacity="1" fill-rule="evenodd"/><path fill="#cda85e" d="M 146.167969 181.71875 C 149.863281 178.730469 155.484375 175.34375 154.382812 168.160156 C 153.746094 164.042969 148.5625 164.65625 146.796875 170.097656 C 149.535156 169.316406 151.429688 168.945312 151.355469 171.242188 C 151.289062 173.316406 149.300781 177.1875 146.167969 181.71875 Z M 146.167969 181.71875 " fill-opacity="1" fill-rule="evenodd"/><path fill="#cda85e" d="M 178 216.246094 C 181.695312 213.253906 187.316406 209.867188 186.214844 202.683594 C 185.582031 198.566406 180.394531 199.179688 178.628906 204.621094 C 181.367188 203.839844 183.261719 203.46875 183.1875 205.769531 C 183.121094 207.84375 181.132812 211.714844 178 216.246094 Z M 178 216.246094 " fill-opacity="1" fill-rule="evenodd"/><path fill="#cda85e" d="M 216.601562 188.117188 C 220.296875 185.125 225.921875 181.742188 224.816406 174.558594 C 224.183594 170.4375 218.996094 171.050781 217.234375 176.496094 C 219.96875 175.710938 221.867188 175.339844 221.789062 177.640625 C 221.722656 179.714844 219.734375 183.585938 216.601562 188.117188 Z M 216.601562 188.117188 " fill-opacity="1" fill-rule="evenodd"/><path fill="#cda85e" d="M 295.390625 148.421875 C 299.085938 145.429688 304.707031 142.046875 303.605469 134.863281 C 302.972656 130.742188 297.785156 131.355469 296.019531 136.800781 C 298.757812 136.015625 300.652344 135.644531 300.578125 137.945312 C 300.511719 140.019531 298.523438 143.890625 295.390625 148.421875 Z M 295.390625 148.421875 " fill-opacity="1" fill-rule="evenodd"/><path fill="#cda85e" d="M 380.765625 194.515625 C 384.460938 191.523438 390.082031 188.136719 388.980469 180.953125 C 388.347656 176.835938 383.160156 177.449219 381.394531 182.890625 C 384.132812 182.109375 386.027344 181.738281 385.953125 184.035156 C 385.886719 186.109375 383.898438 189.980469 380.765625 194.515625 Z M 380.765625 194.515625 " fill-opacity="1" fill-rule="evenodd"/><path fill="#cda85e" d="M 100.796875 186.796875 C 97.777344 190.464844 92.945312 194.902344 95.460938 201.722656 C 96.90625 205.632812 101.863281 203.996094 102.503906 198.3125 C 99.980469 199.621094 98.195312 200.367188 97.808594 198.097656 C 97.460938 196.050781 98.636719 191.863281 100.796875 186.796875 Z M 100.796875 186.796875 " fill-opacity="1" fill-rule="evenodd"/><path fill="#cda85e" d="M 146.1875 195.324219 C 143.164062 198.992188 138.332031 203.433594 140.851562 210.25 C 142.292969 214.160156 147.253906 212.523438 147.894531 206.839844 C 145.371094 208.152344 143.585938 208.894531 143.199219 206.625 C 142.851562 204.582031 144.023438 200.390625 146.1875 195.324219 Z M 146.1875 195.324219 " fill-opacity="1" fill-rule="evenodd"/><path fill="#cda85e" d="M 169.097656 147.246094 C 166.078125 150.914062 161.242188 155.351562 163.761719 162.171875 C 165.207031 166.082031 170.164062 164.445312 170.804688 158.757812 C 168.28125 160.070312 166.496094 160.816406 166.109375 158.546875 C 165.761719 156.5 166.933594 152.308594 169.097656 147.246094 Z M 169.097656 147.246094 " fill-opacity="1" fill-rule="evenodd"/><path fill="#cda85e" d="M 225.382812 191.0625 C 222.363281 194.730469 217.53125 199.167969 220.046875 205.988281 C 221.492188 209.894531 226.449219 208.261719 227.089844 202.574219 C 224.566406 203.886719 222.78125 204.628906 222.394531 202.363281 C 222.046875 200.316406 223.222656 196.125 225.382812 191.0625 Z M 225.382812 191.0625 " fill-opacity="1" fill-rule="evenodd"/><path fill="#cda85e" d="M 259.53125 160.070312 C 256.511719 163.742188 251.679688 168.179688 254.195312 174.996094 C 255.640625 178.90625 260.597656 177.269531 261.242188 171.585938 C 258.714844 172.898438 256.933594 173.640625 256.546875 171.375 C 256.195312 169.328125 257.371094 165.136719 259.53125 160.070312 Z M 259.53125 160.070312 " fill-opacity="1" fill-rule="evenodd"/><path fill="#cda85e" d="M 408.941406 138.714844 C 405.917969 142.382812 401.085938 146.820312 403.605469 153.640625 C 405.050781 157.546875 410.007812 155.910156 410.648438 150.226562 C 408.125 151.539062 406.339844 152.28125 405.953125 150.015625 C 405.605469 147.96875 406.777344 143.777344 408.941406 138.714844 Z M 408.941406 138.714844 " fill-opacity="1" fill-rule="evenodd"/><path fill="#cda85e" d="M 391.867188 191.066406 C 388.84375 194.734375 384.011719 199.171875 386.53125 205.992188 C 387.972656 209.902344 392.933594 208.265625 393.574219 202.582031 C 391.050781 203.894531 389.265625 204.636719 388.878906 202.367188 C 388.527344 200.320312 389.703125 196.132812 391.867188 191.066406 Z M 391.867188 191.066406 " fill-opacity="1" fill-rule="evenodd"/><path fill="#cda85e" d="M 472.972656 157.8125 C 469.949219 161.480469 465.117188 165.921875 467.636719 172.738281 C 469.082031 176.648438 474.039062 175.011719 474.679688 169.328125 C 472.15625 170.640625 470.371094 171.382812 469.984375 169.113281 C 469.636719 167.070312 470.808594 162.878906 472.972656 157.8125 Z M 472.972656 157.8125 " fill-opacity="1" fill-rule="evenodd"/><path fill="#cda85e" d="M 536.210938 155.777344 C 533.191406 159.445312 528.359375 163.882812 530.875 170.703125 C 532.320312 174.613281 537.277344 172.976562 537.921875 167.289062 C 535.394531 168.601562 533.609375 169.347656 533.226562 167.078125 C 532.875 165.03125 534.050781 160.84375 536.210938 155.777344 Z M 536.210938 155.777344 " fill-opacity="1" fill-rule="evenodd"/><path fill="#cda85e" d="M 358.867188 136.257812 C 360.429688 136.179688 361.007812 135.261719 361.175781 134.097656 C 361.34375 132.921875 359.253906 132.496094 357.550781 133.410156 C 353.917969 135.359375 352.183594 137.34375 353.371094 139.390625 C 354.460938 141.265625 356.816406 141.488281 359.300781 141.878906 C 362.925781 141.949219 369.472656 141.964844 369.898438 143.332031 C 370.375 144.867188 356.328125 144.46875 346.441406 140.105469 C 348.386719 142.042969 350.484375 144.597656 352.902344 145.0625 C 359.054688 146.25 363.6875 147.289062 369.199219 146.8125 C 371.046875 146.65625 372.652344 144.917969 372.128906 143.078125 C 371.695312 141.558594 369.464844 139.144531 366.488281 139.066406 C 362.964844 138.976562 360.097656 139.554688 356.292969 138.707031 C 354.367188 138.277344 357.25 136.339844 358.867188 136.257812 Z M 358.867188 136.257812 " fill-opacity="1" fill-rule="evenodd"/><path fill="#cda85e" d="M 297.71875 193.894531 C 294.277344 198.027344 290.851562 202.972656 290.964844 208.5 C 291.09375 214.816406 300.433594 214.457031 301.628906 209.246094 C 302.582031 205.089844 301.234375 201.136719 296.222656 198.375 L 297.929688 195.320312 Z M 295.371094 203.277344 C 294.28125 203.003906 293.597656 205.785156 294.300781 207.542969 C 294.863281 208.941406 299.121094 208.601562 299.210938 207.328125 C 299.3125 205.9375 297.140625 203.722656 295.371094 203.277344 Z M 295.371094 203.277344 " fill-opacity="1" fill-rule="evenodd"/><path fill="#cda85e" d="M 236.234375 148.269531 C 237.160156 148.402344 235.285156 145.601562 233.679688 146.195312 C 232.21875 146.738281 232.34375 147.472656 232.828125 148.269531 C 234.585938 151.15625 236.582031 154.984375 235.382812 155.171875 C 233.097656 155.527344 232.363281 154.835938 231.535156 153.101562 C 230.949219 151.867188 230.566406 149.882812 230.273438 147.578125 C 229.730469 147.808594 229.058594 148.039062 228.074219 148.269531 C 229.867188 151.351562 230.238281 155.742188 228.21875 155.863281 C 225.472656 156.027344 224.828125 153.191406 225.160156 148.957031 C 225.296875 147.238281 221.441406 149.566406 222.605469 151.71875 C 223.386719 151.320312 224.328125 151.214844 224.3125 151.71875 C 224.144531 156.132812 224.394531 158.492188 226.867188 158.625 C 228.46875 158.691406 229.960938 158.175781 231.125 155.863281 C 232.113281 158.460938 236.296875 159.164062 237.085938 155.171875 C 237.429688 153.433594 236.359375 151.296875 235.382812 148.957031 C 235.078125 148.371094 235.363281 148.140625 236.234375 148.269531 Z M 236.234375 148.269531 " fill-opacity="1" fill-rule="evenodd"/></svg>